<svg xmlns="http://www.w3.org/2000/svg" viewBox="0 0 1200 630" role="img" aria-label="Legacy Independent Living — Live well. Live independently. Live legacy.">
  <defs>
    <linearGradient id="bg" x1="0" y1="0" x2="0" y2="1">
      <stop offset="0" stop-color="#F3EEE2"/>
      <stop offset="1" stop-color="#FBF8F1"/>
    </linearGradient>
  </defs>
  <rect width="1200" height="630" fill="url(#bg)"/>
  <rect x="0" y="0" width="1200" height="12" fill="#4A5533"/>

  <!-- emblem on the left -->
  <g transform="translate(70,95) scale(0.74)">
    <path d="M120 250 C170 110, 430 90, 500 250" fill="none" stroke="#634C2C" stroke-width="6" stroke-linecap="round"/>
    <g fill="#8FA05A">
      <ellipse cx="190" cy="150" rx="20" ry="11" transform="rotate(-32 190 150)"/>
      <ellipse cx="250" cy="120" rx="20" ry="11" transform="rotate(-16 250 120)"/>
      <ellipse cx="315" cy="112" rx="20" ry="11" transform="rotate(2 315 112)"/>
      <ellipse cx="380" cy="120" rx="20" ry="11" transform="rotate(18 380 120)"/>
      <ellipse cx="440" cy="150" rx="20" ry="11" transform="rotate(36 440 150)"/>
    </g>
    <path d="M150 430 C140 330, 150 250, 178 215" fill="none" stroke="#634C2C" stroke-width="16" stroke-linecap="round"/>
    <g fill="#7E814C"><circle cx="175" cy="210" r="46"/><circle cx="128" cy="240" r="34"/><circle cx="220" cy="240" r="38"/><circle cx="172" cy="262" r="38"/></g>
    <g fill="#8FA05A"><circle cx="150" cy="218" r="20"/><circle cx="205" cy="218" r="20"/><circle cx="178" cy="250" r="18"/></g>
    <rect x="392" y="300" width="118" height="104" fill="#F5E8D5" stroke="#634C2C" stroke-width="4"/>
    <path d="M378 304 L451 240 L524 304 Z" fill="#4A5533"/>
    <rect x="430" y="332" width="42" height="42" fill="#4A5533"/>
    <path d="M40 470 C180 440, 430 440, 560 470 L560 520 L40 520 Z" fill="#A8B06A"/>
    <path d="M250 520 C268 480, 350 460, 440 446 C360 486, 322 500, 322 520 Z" fill="#F3EEE2"/>
    <g fill="#4A5533">
      <circle cx="250" cy="392" r="22"/><path d="M228 420 q22 -16 44 0 l-5 70 -12 0 -4 -42 -4 42 -12 0 Z"/>
      <circle cx="305" cy="410" r="15"/><path d="M291 430 q14 -11 28 0 l-4 52 -8 0 -3 -32 -3 32 -8 0 Z"/>
      <circle cx="356" cy="390" r="21"/><path d="M335 418 q21 -15 42 0 l-5 70 -11 0 -5 -42 -4 42 -11 0 Z"/>
    </g>
  </g>

  <!-- wordmark on the right -->
  <g font-family="Cormorant Garamond, Georgia, serif" fill="#3A431F">
    <text x="548" y="268" font-size="112" font-weight="600" letter-spacing="5">LEGACY</text>
    <text x="551" y="328" font-family="Mulish, Arial, sans-serif" font-size="34" font-weight="800" letter-spacing="6" fill="#634C2C">INDEPENDENT LIVING</text>
  </g>
  <line x1="551" y1="366" x2="1130" y2="366" stroke="#A8B06A" stroke-width="2"/>
  <text x="551" y="421" font-family="Cormorant Garamond, Georgia, serif" font-style="italic" font-size="33" fill="#7E814C">Live well. Live independently. Live legacy.</text>
  <text x="551" y="498" font-family="Mulish, Arial, sans-serif" font-size="29" font-weight="700" fill="#4A5533">Supportive Transitional &amp; Reentry Housing</text>
  <text x="551" y="540" font-family="Mulish, Arial, sans-serif" font-size="25" fill="#634C2C">Fulshear, Texas &#183; Fort Bend County &#183; (832) 317-1933</text>
</svg>
